<?xml version="1.0" standalone="no"?> <!DOCTYPE svg PUBLIC "-//W3C//DTD SVG 20010904//EN" "http://www.w3.org/TR/2001/REC-SVG-20010904/DTD/svg10.dtd"> <svg version="1.0" xmlns="http://www.w3.org/2000/svg" width="462.000000pt" height="321.000000pt" viewBox="0 0 462.000000 321.000000" preserveAspectRatio="xMidYMid meet"> <g transform="translate(0.000000,321.000000) scale(0.100000,-0.100000)" fill="#0035ff" stroke="none"> <path d="M3236 2758 c-42 -34 -169 -200 -241 -316 -5 -9 -34 -53 -62 -98 -29 -45 -56 -90 -60 -100 -4 -11 -19 -37 -35 -58 -15 -21 -28 -45 -28 -53 0 -7 -4 -13 -10 -13 -5 0 -10 -6 -10 -14 0 -8 -6 -21 -13 -28 -7 -7 -18 -24 -25 -38 -6 -14 -16 -32 -21 -40 -5 -8 -12 -22 -15 -30 -4 -8 -20 -37 -36 -65 -17 -27 -35 -61 -40 -74 -6 -13 -44 -91 -84 -175 -41 -83 -84 -172 -96 -198 -20 -45 -41 -66 -105 -113 -16 -11 -43 -31 -60 -45 -18 -14 -43 -32 -55 -40 -12 -8 -39 -27 -59 -41 -20 -14 -43 -28 -51 -32 -8 -4 -32 -17 -52 -30 -99 -60 -152 -86 -160 -81 -19 12 2 91 49 189 33 66 63 154 63 181 0 12 -6 26 -12 31 -21 16 -95 31 -110 22 -7 -5 -26 -9 -42 -9 -19 0 -39 -11 -60 -34 -32 -33 -106 -168 -106 -191 0 -7 -12 -34 -26 -60 -48 -91 -95 -236 -86 -267 18 -62 59 -84 125 -68 20 6 52 14 71 19 46 12 223 97 263 127 17 13 35 24 39 24 5 0 52 29 105 65 53 36 103 65 112 65 21 0 31 -18 19 -33 -19 -23 -43 -108 -37 -128 8 -23 61 -49 100 -49 20 0 60 33 172 143 79 78 150 142 155 142 6 0 20 -24 31 -53 33 -87 102 -142 178 -142 37 0 146 23 184 40 110 47 212 102 305 165 61 41 113 75 115 75 2 0 14 -21 27 -46 31 -63 64 -88 142 -108 62 -15 73 -15 149 0 45 9 92 22 104 30 12 8 29 14 37 14 19 0 79 32 89 48 4 6 13 12 19 12 22 0 110 80 204 188 24 27 37 33 74 34 69 2 139 46 140 88 0 27 -35 41 -70 28 -26 -9 -35 -8 -48 5 -13 14 -14 22 -4 56 11 35 10 45 -9 84 -26 53 -63 77 -117 77 -85 0 -156 -57 -167 -134 -8 -49 8 -95 49 -140 14 -16 26 -33 26 -37 0 -14 -79 -107 -112 -130 -29 -21 -68 -39 -120 -56 -10 -3 -38 3 -62 13 -37 15 -48 26 -61 60 -14 37 -14 44 2 88 22 59 98 145 159 181 64 37 84 60 84 95 0 25 -4 30 -34 36 -24 4 -42 1 -58 -10 -12 -9 -30 -16 -40 -16 -58 0 -256 -153 -323 -250 -15 -22 -51 -57 -79 -77 -79 -57 -169 -118 -186 -126 -8 -4 -35 -18 -59 -32 -24 -14 -50 -25 -56 -25 -7 0 -18 -6 -24 -13 -6 -8 -35 -19 -65 -26 -71 -16 -114 1 -150 58 -33 51 -33 71 -2 71 13 0 29 7 36 15 7 8 19 15 26 15 21 0 93 39 156 84 36 26 66 58 83 88 24 45 25 49 10 72 -16 24 -61 46 -95 46 -10 0 -51 -11 -93 -25 -98 -32 -206 -105 -330 -225 -107 -103 -122 -114 -137 -105 -12 7 -13 32 -2 37 4 2 25 39 47 83 34 69 85 148 106 165 3 3 9 15 13 28 4 12 11 22 14 22 4 0 18 20 32 45 14 25 28 45 33 45 4 0 12 10 17 23 12 27 31 56 48 75 6 7 12 19 12 27 0 7 4 15 8 17 9 3 172 272 172 282 0 4 11 23 24 44 42 67 142 266 164 327 42 115 39 163 -11 208 -27 23 -47 22 -81 -5z"/> <path d="M1515 2544 c-55 -7 -118 -18 -140 -24 -22 -6 -65 -18 -95 -26 -30 -9 -68 -20 -85 -25 -16 -6 -46 -15 -65 -21 -19 -5 -39 -14 -44 -19 -6 -5 -16 -9 -23 -9 -17 0 -333 -157 -343 -170 -3 -4 -12 -10 -20 -14 -28 -13 -55 -31 -118 -76 -171 -122 -197 -142 -202 -148 -3 -4 -37 -33 -76 -64 -110 -88 -224 -202 -224 -225 0 -38 61 -70 104 -53 11 4 39 24 60 45 41 38 139 120 230 190 29 22 59 46 67 53 7 7 43 35 79 62 36 28 70 54 75 58 6 4 17 11 25 15 19 10 43 25 100 62 102 67 272 150 370 182 122 38 201 54 291 56 89 2 98 0 137 -26 43 -28 82 -89 82 -129 0 -50 -64 -187 -122 -262 -68 -87 -293 -284 -358 -313 -8 -4 -17 -9 -20 -12 -11 -13 -101 -71 -110 -71 -5 0 -29 -13 -53 -30 -25 -16 -50 -30 -55 -30 -6 0 -31 -13 -55 -30 -25 -16 -50 -30 -57 -30 -7 0 -24 -6 -38 -13 -15 -8 -42 -21 -60 -30 -19 -9 -39 -17 -45 -17 -6 0 -18 -7 -28 -16 -12 -11 -27 -14 -43 -10 -22 5 -24 9 -16 36 5 16 13 35 20 42 12 15 45 74 91 163 16 33 39 74 50 90 10 17 22 38 25 48 4 9 10 17 13 17 4 0 18 19 30 43 12 23 33 57 47 76 l25 35 -21 20 c-19 19 -24 19 -107 7 -138 -20 -193 -52 -238 -142 -15 -30 -42 -81 -61 -114 -18 -33 -36 -67 -40 -75 -3 -8 -15 -33 -27 -55 -24 -46 -31 -60 -45 -95 -6 -14 -27 -60 -46 -103 -20 -42 -36 -82 -36 -88 0 -6 -6 -25 -14 -42 -39 -91 -76 -205 -76 -234 0 -12 -4 -24 -9 -28 -6 -3 -13 -27 -16 -53 -3 -26 -11 -64 -17 -84 -20 -68 31 -169 101 -198 25 -10 33 -9 55 7 15 11 28 32 31 53 4 19 13 52 21 73 8 20 14 51 14 67 0 16 4 31 9 35 5 3 12 19 16 36 4 17 13 42 21 57 8 15 14 34 14 42 0 8 7 24 15 34 8 11 15 26 15 35 0 8 8 32 18 53 20 46 42 45 94 -3 34 -32 217 -154 323 -217 23 -13 93 -48 115 -56 8 -4 47 -24 85 -45 39 -22 78 -40 88 -40 9 -1 17 -5 17 -11 0 -5 15 -14 33 -19 17 -6 57 -19 87 -29 103 -36 261 -20 268 26 2 14 -11 28 -50 53 -75 47 -82 51 -130 78 -24 13 -61 35 -83 50 -22 14 -58 35 -80 46 -22 11 -66 39 -98 62 -33 24 -65 43 -73 43 -8 0 -14 4 -14 9 0 5 -10 13 -22 17 -12 3 -26 10 -32 15 -82 66 -99 79 -104 79 -4 0 -33 24 -65 53 -56 50 -57 53 -42 75 9 12 22 22 30 22 8 0 31 7 52 16 21 9 52 22 68 29 17 6 59 26 95 43 36 17 75 33 88 37 12 3 22 11 22 16 0 5 6 9 14 9 7 0 35 12 62 26 89 47 139 75 166 92 15 9 60 37 100 61 40 25 79 51 87 59 8 7 26 21 40 30 94 61 278 258 318 342 49 101 64 199 39 248 -9 17 -16 38 -16 47 0 21 -40 75 -65 86 -11 5 -36 19 -55 31 -69 42 -204 54 -365 32z"/> <path d="M2095 2040 c-3 -5 -15 -10 -25 -10 -10 0 -25 -7 -34 -15 -8 -8 -18 -15 -23 -15 -23 -1 -103 -97 -103 -124 0 -8 -4 -18 -10 -21 -5 -3 -10 -24 -10 -45 0 -30 7 -46 34 -74 28 -31 40 -36 77 -36 116 1 256 130 261 240 1 45 -17 74 -59 94 -38 18 -99 21 -108 6z"/> </g> </svg>